# xmcd
#
# Track frame offsets:
#	150
#	16340
#	37536
#	54363
#	70085
#	86231
#
# Disc length: 1306 seconds
#
# Revision: 0
# Processed by: cddbd v1.5.2PL0 Copyright (c) Steve Scherf et al.
# Submitted via: EasyCDDAExtractor 9.0.0.1
#
DISCID=3d051806
DTITLE=Vendetta - Trop sages
DYEAR=1998
DGENRE=Pop
TTITLE0=Quand le vide
TTITLE1=Trop sages
TTITLE2=Diaphane
TTITLE3=En chacun de nous il y a un assassin
TTITLE4=Faux-semblants
TTITLE5=Récréation
EXTD=
EXTT0=
EXTT1=
EXTT2=
EXTT3=
EXTT4=
EXTT5=
PLAYORDER=
